<svg viewBox="0 0 150 150" xmlns="http://www.w3.org/2000/svg">
	<rect fill="#F6C915" width="150" height="150" rx="15"/>
	<path fill="#1A171B" d="M61.37 105.5c-4.85 0-8.66-.63-11.42-1.9S45.2 100.61 44 98.42s-1.77-4.69-1.74-7.53.42-5.86 1.18-9.07l13.01-54.4 15.88-2.46-14.24 59.01c-.27 1.23-.43 2.36-.46 3.38s.15 1.93.56 2.71 1.11 1.42 2.1 1.9 2.37.79 4.15.92zM76 52.54c2.74-.82 5.86-1.55 9.38-2.2s7.33-.97 11.43-.97 7.12.58 9.89 1.74 5.04 2.75 6.81 4.76 3.09 4.37 3.94 7.07 1.28 5.58 1.28 8.66c0 4.98-.82 9.54-2.46 13.68s-3.91 7.7-6.81 10.71-6.39 5.35-10.46 7.03-8.48 2.5-13.26 2.5c-2.32 0-4.65-.21-6.97-.62l-4.61 18.55H59zM81.54 92.6c1.16.27 2.6.4 4.3.4 2.66 0 5.09-.48 7.27-1.48s4.05-2.37 5.58-4.15 2.73-3.91 3.58-6.4 1.28-5.24 1.28-8.25-.65-5.43-1.95-7.48-3.55-3.07-6.76-3.07c-2.19 0-4.24.2-6.15.62z"/>
</svg>