<svg xmlns="http://www.w3.org/2000/svg" viewBox="0 0 16 16">
	<path fill="#FFF" d="M0 0h16v16H0z"/>
	<path fill="#66b5ff" stroke="#000" d="M2 9l-3 3v4l2.5-2.5v4h9v-4C12 14 12 15 11.32 17h3C16 13 14 11 12 10z"/>
	<path fill="#f5eaa4" d="M7 .5a1 1 0 000 12 1 1 0 000-12z"/>
	<path fill="#FFF" d="M12.26 4.9a2.5 2.5 0 00-.813 4.833A5 5 0 0012.26 4.9zM7 4.9a1 1 0 000 5 1 1 0 000-5"/>
	<path d="M8 6.5a1 1 0 000 2 1 1 0 000-2m3 0a1 1 0 000 2 1 1 0 000-2"/>
	<path fill="#5170bd" d="M4.136 11.2a5.6 5.6 0 118.354-5.022A1 1 0 104.136 11.2M12 5l-2 2-5-5"/>
	<path fill="#66b5ff" d="M6 1l4 4 2-2A5 5 0 006 1"/>
	<path fill="none" stroke="#000" d="M7 .5a1 1 0 000 12 1 1 0 000-12zm-1.3 0 3 3 2-2m-2 2 1.325 1.325 2-2M6 10.5h4"/>
</svg>