<svg viewBox="0 0 34 33" xmlns="http://www.w3.org/2000/svg">
	<path fill="#000" d="M0 0H34V33H0z"/>
	<path fill="#FFF" d="M20.39 23.94c-.95.94-2.1 1.66-3.39 2.1-1.28-.44-2.43-1.17-3.38-2.11zM6.69 5.1A13.5 13.5 0 0127.35 5.09a11 11 0 013.36-.51v4.77a6.5 6.5 0 010 10.92 13.76 13.76 0 01-27.41 0 6.5 6.5 0 010-10.91v-4.78a11 11 0 013.39.52m4 1.81a13 13 0 0112.62 0 11 11 0 011.38-.8 11 11 0 00-15.38 0 11 11 0 011.37.8m0 3.26A11 11 0 006 7.65V19a1 1 0 0022.03 0V7.66a11 11 0 00-4.68 2.5 11 11 0 00-12.69 0M25.35 18.63c-.05.56 0 2.23-1.76 3.27-.29.17-1.02.42-1.71.45-1.7.08-4.12.1-4.12.1.43-1.98 1.14-3.45 2.67-3.63S25.35 18.63 25.35 18.63m-11.77.19c1.53.18 2.24 1.65 2.67 3.63 0 0-2.42-.02-4.12-.1-.69-.03-1.42-.28-1.71-.45-1.77-1.04-1.71-2.71-1.76-3.27 0 0 3.08-.02 4.92.19m6.66 8.94a6.2 6.2 0 01-6.46 0 1.6 1.6 0 01.68-1.11 9 9 0 005.1 0 1.6 1.6 0 01.68 1.11"/>
</svg>