<svg xmlns="http://www.w3.org/2000/svg" viewBox="0 0 480 480">
	<linearGradient id="g" x2="117" y2="76" x1="390" y1="388" gradientUnits="userSpaceOnUse">
		<stop offset="0" stop-color="#f02668"/>
		<stop offset="1" stop-color="#fa9924"/>
	</linearGradient>
	<path d="M0 0v480h480v-480"/>
	<circle fill="url(#g)" cx="244" cy="239" r="208"/>
	<path stroke="#fff" stroke-width="9" stroke-linecap="round" d="M243 87l3 4M254 111c2 5 2 9 2 14"/>
	<path fill="#fff" d="M357.1 65.5c-18.4 8.3-20 31.8-24.1 49s-15.9 40.2-36.8 36-9.2-18.5-15.3-45.9-18.6-53.5-46.6-57.3-61.3 11.7-80.5 33-14.8 50.2-9.2 74.7l11.7 38.8c-21.8 9.3-43.3 15.2-65.1 28.4s-37.4 26.5-53.3 43c1.9 15.4 5.7 30.6 11 45.3 15.9 12.4 38.1-1.5 47.9-11.5s37.2-30 52.7-37.2 22.9-7.6 30.5 7.5 25 37.7 30 59.8-20.8 31.5-37.8 28.8-40.1 11.9-36 33.2 18.8 35.9 40 36.6 53.5-9.8 76.4-23.2 26.1-61.9 23-94c23.9-4.4 41.4 18.4 45.2 39.5s-2 45.1 18.3 55.9c11.3 4.2 25.3 5.6 33.9-4.4 10.6-8.8 21.4-18.1 29.3-29.3.9-13.3-10.3-24.2-16.6-37.9s-7.7-32.3-14.2-48.2-35.5-34.1-47.3-50.9 9.8-26.2 20.1-36 41.7-51.2 46.1-68.2 12.5-30.8-1.3-39.8c-9.8-9.6-20.5-18.2-31.9-25.7m-124.7 4.2c23 0 32.2 25.4 35.9 44.3s-13.4 31-31.7 37.8-43.3 7.2-50.8-14.2-5.9-41.6 6.1-50.6 27.4-17.1 40.5-17.3M386 172l-2 13-12 5 13 2 5 12 2-13 12-5-13-2z"/>
</svg>