<svg viewBox="0 0 480 480" xmlns="http://www.w3.org/2000/svg">
	<path fill="#5bcefa" d="M9 0H480V470H9z"/>
	<path fill="#f5a9b8" d="M0 24l298 89L186 364 540 480H0z"/>
	<path style="fill:none;stroke:#FFF;stroke-width:50;stroke-linecap:round;stroke-linejoin:round" d="M0 0 60 60c57.8 3.8 115.1 7.9 157.6 16.7 38.15 7.899 67.701 17.595 77.7 42.8 9.999 25.205-2.6 46.4-22.1 75.5-9.7 14.6-21.5 29.8-33.2 45-11.7 15.2-23.5 30.4-33.2 45-19.5 29.1-31.965 50.244-22.1 75.5 9.865 25.256 35.3 33.9 77.7 42.8 42.4 8.9 99.8 12.9 157.6 16.7l60 60"/>
	<path style="fill:#FFF;stroke:#FFF;stroke-width:30;stroke-linejoin:round" d="M47.574 269.671l96.468-112.385a21.85 21.85 0 1128.393 32.802z"/>
</svg>