<?xml version="1.0" encoding="UTF-8" standalone="no"?>
<svg version="1" viewBox="0 0 480 480" id="svg3" xmlns="http://www.w3.org/2000/svg" xmlns:svg="http://www.w3.org/2000/svg">
  <defs id="defs3" />
  <rect style="fill:#5bcefa;stroke:none;stroke-width:50;stroke-linecap:round;stroke-miterlimit:10;paint-order:stroke fill markers;fill-opacity:1" id="rect1" width="480" height="480" x="0" y="0" />
  <path id="path12" d="m 0,480 h 480 l -60,-60 c -57.79994,-3.8 -115.20004,-7.80001 -157.6,-16.7 -42.39996,-8.89999 -69.60001,-22.70002 -77.7,-42.8 -8.09999,-20.09998 2.60002,-46.40003 22.1,-75.5 9.69999,-14.59999 21.50001,-29.80002 33.2,-45 11.69999,-15.19998 23.50001,-30.40001 33.2,-45 19.49998,-29.09997 30.19999,-55.40002 22.1,-75.5 C 286.50437,97.673803 255.74997,84.599289 217.6,76.7 175.10004,67.900009 117.79994,63.799996 60,60 L 0,0 Z" style="fill:#f5a9b8;fill-opacity:1;stroke:none;stroke-width:7.5;stroke-dasharray:none;stroke-opacity:1" />
  <rect style="fill:#5bcefa;stroke:none;stroke-width:7.55906;paint-order:stroke fill markers;fill-opacity:1" id="rect3" width="120.32574" height="126.88824" x="0" y="-320.79184" />
  <rect style="fill:#f5a9b8;fill-opacity:1;stroke:none;stroke-width:7.55906;paint-order:stroke fill markers" id="rect4" width="120.32574" height="126.88824" x="120.32574" y="-320.79184" />
  <rect style="fill:#ffffff;fill-opacity:1;stroke:none;stroke-width:7.55906;paint-order:stroke fill markers" id="rect5" width="120.32574" height="126.88824" x="240.65147" y="-320.79184" />
  <path id="path2" d="m 480,480 -60,-60 c -57.79994,-3.8 -115.20004,-7.80001 -157.6,-16.7 -42.39996,-8.89999 -67.8348,-17.54417 -77.7,-42.8 -9.8652,-25.25583 2.60002,-46.40003 22.1,-75.5 9.69999,-14.59999 21.50001,-29.80002 33.2,-45 11.69999,-15.19998 23.50001,-30.40001 33.2,-45 19.49998,-29.09997 32.09927,-50.29512 22.1,-75.5 C 285.30073,94.295117 255.74997,84.599289 217.6,76.7 175.10004,67.900009 117.79994,63.799996 60,60 L 0,0" style="fill:none;fill-opacity:1;stroke:#ffffff;stroke-width:50;stroke-linecap:round;stroke-linejoin:round;stroke-dasharray:none;stroke-opacity:1" />
  <path id="path1" style="fill:#ffffff;fill-opacity:1;stroke:#ffffff;stroke-width:30;stroke-linecap:round;stroke-linejoin:round;stroke-miterlimit:10;stroke-dasharray:none;stroke-opacity:1" d="m 172.43494,190.0878 v 0 c 10.49565,-7.29382 12.50044,-22.00761 4.33878,-31.84356 -8.39382,-10.11571 -23.76132,-10.56528 -32.73213,-0.95755 L 47.574473,269.67147 Z" />
</svg>
