<svg viewBox="0 0 1162.5 240" xmlns="http://www.w3.org/2000/svg">
	<path fill="#ae895f" d="M0 0h922l240 9 .5 231H0z"/>
	<path fill="#bcbcbc" d="M0 0v240h240v-165h37.5v165h37.5v-37.5h150v37.5h83a14 15 0 000-240h-83v37.5h-150v-37.5h-37.5v37.5h-37.5v-37.5zm315 75h150v37.5h-150zm382.5-75v240h150v-37.5h-112.5v-202.5zm75 0h150v37.5h-150zm0 75h150v37.5h-150zm112.5 127.5h37.5v37.5h-37.5z"/>
	<path fill="#ae895f" d="M0 0v240h240l-30-30c-28.9-1.9-57.6-3.9-78.8-8.35s-34.8-11.35-38.85-21.4 1.3-23.2 11.05-37.75 10.75-14.9 16.6-22.5 11.75-15.2 16.6-22.5c9.75-14.55 15.1-27.7 11.05-37.75s-17.6-17-38.85-21.4-49.9-6.45-78.8-8.35z"/>
	<path fill="#bcbcbc" d="M922.5 0l30 30c28.9 1.9 57.55 3.9 78.8 8.35s34.8 11.35 38.85 21.4-1.3 23.2-11.05 37.75c-4.85 7.3-10.75 14.9-16.6 22.5s-11.75 15.2-16.6 22.5c-9.75 14.55-15.1 27.7-11.05 37.75s17.6 16.95 38.85 21.4 49.9 6.45 78.8 8.35l30 30V0z"/>
</svg>